<?xml version="1.0" encoding="UTF-8"?>
<svg width="24px" height="24px" viewBox="0 0 24 24" version="1.1" xmlns="http://www.w3.org/2000/svg" xmlns:xlink="http://www.w3.org/1999/xlink">
    <title>中间</title>
    <g id="ChatGPT" stroke="none" stroke-width="1" fill="none" fill-rule="evenodd">
        <g transform="translate(-912.000000, -623.000000)" id="中间">
            <g transform="translate(220.000000, 60.000000)">
                <g id="icon" transform="translate(692.000000, 563.000000)">
                    <rect id="矩形" x="0" y="0" width="24" height="24"></rect>
                    <g id="SVG-Layer" transform="translate(12.000000, 11.999719) rotate(90.000000) translate(-12.000000, -11.999719) translate(4.000000, 4.000000)" fill="#8F8FA6" fill-rule="nonzero" stroke="#8F8FA6" stroke-width="0.5">
                        <path d="M8.89370766,0.551932768 C8.72414652,0.213618031 8.37813622,-8.32666857e-16 7.9997081,-8.32666857e-16 C7.62127998,-8.32666857e-16 7.27526968,0.213618031 7.10570854,0.551932768 L0.105712003,14.5519259 C-0.0717615074,14.9066182 -0.0228423337,15.3326752 0.230403318,15.6379131 C0.48364897,15.943151 0.893354246,16.0698758 1.27471143,15.9609252 L6.27470895,14.5319259 C6.70406948,14.4091168 6.99995677,14.016505 6.9997086,13.5699263 L6.9997086,8.99892859 C6.9997086,8.44664412 7.44742363,7.99892909 7.9997081,7.99892909 C8.55199258,7.99892909 8.99970761,8.44664412 8.99970761,8.99892859 L8.99970761,13.5699263 C8.99945943,14.016505 9.29534672,14.4091168 9.72470725,14.5319259 L14.7247048,15.9599252 C15.1059392,16.0690911 15.5156624,15.9426696 15.7691052,15.6376718 C16.0225479,15.332674 16.071821,14.9067307 15.8947042,14.5519259 L8.89470766,0.551932768 L8.89370766,0.551932768 Z" id="路径"></path>
                    </g>
                </g>
            </g>
        </g>
    </g>
</svg>